<svg width="24" height="24" viewBox="0 0 24 24" fill="none" xmlns="http://www.w3.org/2000/svg">
<path fill-rule="evenodd" clip-rule="evenodd" d="M12 24C18.627 24 24 18.627 24 12C24 5.373 18.627 0 12 0C5.373 0 0 5.373 0 12C0 18.627 5.373 24 12 24ZM17.575 10.097C17.575 13.767 14.685 18 9.403 18V17.998C7.84784 18.0015 6.32271 17.5699 5 16.752C6.51252 16.9325 8.03614 16.5199 9.251 15.601C8.651 15.591 8.071 15.398 7.589 15.053C7.11148 14.7121 6.7538 14.2292 6.567 13.673C6.997 13.753 7.442 13.736 7.864 13.625C7.21919 13.5008 6.63585 13.1609 6.21 12.661C5.79183 12.1702 5.56148 11.5468 5.56 10.902V10.867C5.96 11.082 6.407 11.201 6.864 11.214C6.26105 10.8288 5.82981 10.226 5.66 9.531C5.49477 8.84128 5.60756 8.11424 5.974 7.507C6.7014 8.36995 7.60092 9.07158 8.615 9.567C9.635 10.067 10.752 10.353 11.895 10.409C11.7516 9.81331 11.8154 9.18654 12.076 8.632C12.3417 8.07053 12.7853 7.61249 13.338 7.329C13.8984 7.04023 14.5364 6.93793 15.159 7.037C15.7785 7.13327 16.3502 7.42721 16.789 7.875C17.4302 7.75319 18.0467 7.52541 18.613 7.201C18.3939 7.85043 17.9446 8.39718 17.35 8.738C17.9184 8.67296 18.4742 8.52541 19 8.3C18.6115 8.86031 18.1262 9.34691 17.567 9.737C17.575 9.857 17.575 9.976 17.575 10.097Z" fill="white"/>
</svg>
