<?xml version="1.0" encoding="utf-8"?>
<!-- Generator: Adobe Illustrator 24.2.1, SVG Export Plug-In . SVG Version: 6.00 Build 0)  -->
<svg version="1.1" id="Layer_1" xmlns="http://www.w3.org/2000/svg" xmlns:xlink="http://www.w3.org/1999/xlink" x="0px" y="0px"
	 viewBox="0 0 321.5 321.5" style="enable-background:new 0 0 321.5 321.5;" xml:space="preserve">
<style type="text/css">
	.st0{fill:#4AC5F2;}
</style>
<g>
	<polygon class="st0" points="185.7,226.2 204.1,272.7 234.4,272.7 247.7,226.2 	"/>
	<path class="st0" d="M154.6,183.3c-11.1-27.3-24.4-63.6-20.7-66.5c1.5-1.5,8.9,5.2,20,24.4c1.5,2.2,0.7-0.7,0.7-2.2
		c0-14.8,0-104.2,0-104.2s-39.9,0-43.6,0c-2.2,0-3,0-3,0.7c-0.7,0.7,0,1.5,0,3c14,42.1,20,65.8,17,68c-1.5,1.5-8.9-9.6-20.7-34.7
		C86.6,33.3,75.6,11.8,74.1,13.3c-2.2,1.5,10.3,40.6,42.1,128.6c10.3,28.8,14,43.6,11.8,45.1s-8.1-8.1-17-25.9
		c-10.3-20.7-14.8-28.8-16.3-28.8c-1.5,0.7,2.2,14,8.9,33.3c9.6,30.3,25.9,82.8,22.9,85c-1.5,0.7-6.7-7.4-17-30.3
		c-2.2-5.2-3.7-7.4-3.7-7.4s-0.7,0.7-0.7,2.2c0,3,0,34,0,34l-11.8,24.4H148c-14-40.6-18.5-59.1-16.3-59.9c3-1.5,14.8,22.2,29.6,59.9
		c14,6.7,31.8,23.6,42.1,33.3c2.2,2.2,3,2.2,2.2,0C193.1,277.1,176.8,238,154.6,183.3z"/>
</g>
</svg>
