<?xml version="1.0" encoding="utf-8"?>
<!-- Generator: Adobe Illustrator 24.2.1, SVG Export Plug-In . SVG Version: 6.00 Build 0)  -->
<svg version="1.1" id="Layer_1" xmlns="http://www.w3.org/2000/svg" xmlns:xlink="http://www.w3.org/1999/xlink" x="0px" y="0px"
	 viewBox="0 0 550 550" style="enable-background:new 0 0 550 550;" xml:space="preserve">
<style type="text/css">
	.st0{fill:#D4380D;}
</style>
<g>
	<polygon class="st0" points="204.96,180.7 224.51,203.7 260.16,186.45 260.16,281.9 232.56,332.5 326.15,332.5 298.96,282.7 
		298.98,116.58 267.06,116.58 	"/>
	<path class="st0" d="M128.14,138.95l6.1-35.16l34.51,0.73c0,0,16.82-14.02-1.29-22.5c-34.5,0-53.12,0-53.12,0l-9.41,50.92
		C104.93,132.95,110.31,155.05,128.14,138.95z"/>
	<path class="st0" d="M98.28,228.84l-14-32.82l29.36-18.16c0,0,6.49-20.91-13.32-18.18c-28.95,18.76-44.58,28.89-44.58,28.89
		l19.8,47.85C75.54,236.43,92.07,252.05,98.28,228.84z"/>
	<path class="st0" d="M107.41,320.29l-26.76-23.6l18.69-29.02c0,0-3.13-21.67-19.84-10.68c-18.07,29.39-27.81,45.25-27.81,45.25
		l38.46,34.68C90.14,336.92,111.79,343.91,107.41,320.29z"/>
	<path class="st0" d="M171.61,391.03l-35.49-3.75l-1.56-34.49c0,0-15.1-15.85-22.36,2.78c2.29,34.43,3.52,53,3.52,53l51.43,6.01
		C167.16,414.59,188.86,407.75,171.61,391.03z"/>
	<path class="st0" d="M424.1,354.36l-4.3,35.42l-34.51,1.03c0,0-16.08,14.85,2.44,22.4c34.46-1.76,53.05-2.7,53.05-2.7l6.81-51.34
		C447.58,359.17,441.08,337.37,424.1,354.36z"/>
	<path class="st0" d="M343.64,412.48l-20.3,29.34l-31.01-15.16c0,0-21.15,5.65-8.28,20.96c31.31,14.49,48.2,22.32,48.2,22.32
		l29.93-42.26C362.18,427.68,366.58,405.36,343.64,412.48z"/>
	<path class="st0" d="M204.22,413.36l20.3,29.34l31.01-15.16c0,0,21.15,5.65,8.28,20.96c-31.31,14.49-48.2,22.32-48.2,22.32
		l-29.93-42.26C185.68,428.56,181.28,406.23,204.22,413.36z"/>
	<path class="st0" d="M453.78,263.77l15.65,32.07l-28.4,19.63c0,0-5.42,21.21,14.23,17.48c27.96-20.21,43.05-31.12,43.05-31.12
		l-22.21-46.78C476.11,255.04,458.8,240.28,453.78,263.77z"/>
	<path class="st0" d="M441.5,176.9l27.93,22.21l-17.19,29.94c0,0,4.23,21.48,20.36,9.65c16.55-30.27,25.48-46.61,25.48-46.61
		l-40.17-32.68C457.9,159.41,435.92,153.54,441.5,176.9z"/>
	<path class="st0" d="M379.52,102.94l35.63,1.94l3.32,34.36c0,0,15.89,15.06,22.19-3.92c-4.04-34.26-6.22-52.75-6.22-52.75
		l-51.67-3.39C382.77,79.19,361.45,87.12,379.52,102.94z"/>
</g>
</svg>
