<svg version="1.1" xmlns="http://www.w3.org/2000/svg" xmlns:xlink="http://www.w3.org/1999/xlink" x="0px" y="0px"
	 width="226.81px" height="85.57px" viewBox="0 0 226.81 85.57" style="overflow:visible;enable-background:new 0 0 226.81 85.57;"
	 xml:space="preserve">
<style type="text/css">
	.st0{fill:url(#SVGID_1_);}
	.st1{fill:#FFFFFF;}
	.st2{fill:url(#SVGID_2_);}
</style>
<defs>
</defs>
<g>
	<linearGradient id="SVGID_1_" gradientUnits="userSpaceOnUse" x1="37.565" y1="75.1446" x2="37.565" y2="20.6835">
		<stop  offset="0" style="stop-color:#0083E5"/>
		<stop  offset="1" style="stop-color:#00E1FF"/>
	</linearGradient>
	<polygon class="st0" points="75.13,48 43.47,79.66 37.57,85.57 31.66,79.66 25.04,73.05 8.35,56.35 0,48 8.35,39.66 8.35,44.54 
		16.7,52.89 16.7,31.3 25.04,22.96 25.04,61.24 33.39,69.58 33.39,8.35 41.74,0 41.74,69.58 50.09,61.24 50.09,20.87 58.43,12.52 
		58.43,52.89 66.78,44.54 66.78,39.66 69.22,42.1 	"/>
	<g>
		<g>
			<path class="st1" d="M116.23,18.12h-12.84L84.78,66.23h11.25l3.03-8.29h21.49l3.03,8.29h11.18L116.23,18.12z M101.8,49.06
				l8.01-22.07l7.93,22.07H101.8z"/>
			<path class="st1" d="M160.92,18.12h-22.51v8.8h21.13c4.04,0,7.07,2.67,7.07,6.64c0,4.04-3.03,6.63-7.07,6.63h-10.89V29.92
				l-10.24,10.25v26.06h10.24V48.99h12.27c10.38,0,16.15-6.99,16.15-15.36C177.07,25.19,171.37,18.12,160.92,18.12z"/>
			<path class="st1" d="M203.87,39.69v8.8h12.84v5.84c-2.09,1.88-5.99,3.68-10.39,3.68c-8.72,0-15.07-6.71-15.07-15.8
				c0-9.09,6.35-15.79,15.07-15.79c5.05,0,9.17,2.66,11.4,6.05l8.51-4.61c-3.67-5.7-9.95-10.53-19.91-10.53
				c-14.06,0-25.6,9.66-25.6,24.88c0,15.15,11.54,24.96,25.6,24.96c8.73,0,15.59-3.61,20.49-9.09V39.69H203.87z"/>
		</g>
		<g>
			<path class="st1" d="M109.5,73.8c-0.99-0.25-1.86-0.48-1.86-1.2c0-0.67,0.61-1.13,1.5-1.13c0.87,0,1.7,0.29,2.32,0.94l0.69-0.89
				c-0.71-0.72-1.68-1.12-2.91-1.12c-1.67,0-2.83,0.96-2.83,2.28c0,1.63,1.48,2.01,2.77,2.34c1.02,0.27,1.93,0.51,1.93,1.35
				c0,0.57-0.46,1.23-1.75,1.23c-1.12,0-1.98-0.53-2.52-1.13l-0.69,0.93c0.69,0.75,1.73,1.27,3.16,1.27c2.16,0,3.02-1.17,3.02-2.41
				C112.33,74.55,110.81,74.15,109.5,73.8z"/>
			<path class="st1" d="M129.02,70.52v1.06h2.49v6.94h1.19v-6.94h2.47v-1.06H129.02z"/>
			<path class="st1" d="M156.54,70.52h-1.5l-3.17,8h1.31l0.65-1.65h3.92l0.65,1.65h1.32L156.54,70.52z M154.18,75.8l1.61-4.23
				l1.62,4.23H154.18z"/>
			<path class="st1" d="M176.41,70.52v1.06h2.49v6.94h1.19v-6.94h2.48v-1.06H176.41z"/>
			<path class="st1" d="M202.6,73.8c-0.99-0.25-1.86-0.48-1.86-1.2c0-0.67,0.62-1.13,1.5-1.13c0.87,0,1.71,0.29,2.32,0.94l0.69-0.89
				c-0.7-0.72-1.68-1.12-2.91-1.12c-1.67,0-2.83,0.96-2.83,2.28c0,1.63,1.49,2.01,2.77,2.34c1.02,0.27,1.93,0.51,1.93,1.35
				c0,0.57-0.46,1.23-1.75,1.23c-1.12,0-1.98-0.53-2.52-1.13l-0.68,0.93c0.68,0.75,1.72,1.27,3.15,1.27c2.16,0,3.02-1.17,3.02-2.41
				C205.43,74.55,203.91,74.15,202.6,73.8z"/>
		</g>
	</g>
</g>
</svg>
