<svg width="24" height="24" viewBox="0 0 24 24" fill="none" xmlns="http://www.w3.org/2000/svg">
<path fill-rule="evenodd" clip-rule="evenodd" d="M12 24C18.627 24 24 18.627 24 12C24 5.373 18.627 0 12 0C5.373 0 0 5.373 0 12C0 18.627 5.373 24 12 24ZM14.829 6.302C14.09 6.268 13.869 6.262 12 6.262C10.13 6.262 9.91 6.268 9.171 6.302C8.489 6.333 8.118 6.447 7.871 6.543C7.545 6.67 7.311 6.821 7.066 7.066C6.83378 7.29194 6.65508 7.567 6.543 7.871C6.447 8.118 6.333 8.489 6.303 9.171C6.268 9.91 6.261 10.131 6.261 12C6.261 13.87 6.268 14.09 6.302 14.829C6.333 15.511 6.447 15.882 6.543 16.129C6.67 16.455 6.821 16.689 7.066 16.933C7.312 17.178 7.545 17.33 7.871 17.457C8.118 17.553 8.489 17.667 9.171 17.697C9.909 17.732 10.131 17.739 12 17.739C13.87 17.739 14.09 17.731 14.829 17.698C15.511 17.667 15.882 17.553 16.129 17.457C16.455 17.33 16.689 17.179 16.933 16.933C17.178 16.688 17.33 16.455 17.457 16.128C17.553 15.882 17.667 15.511 17.697 14.828C17.732 14.09 17.739 13.869 17.739 12C17.739 10.13 17.731 9.91 17.698 9.171C17.667 8.489 17.553 8.118 17.457 7.871C17.3448 7.5668 17.1658 7.29169 16.933 7.066C16.707 6.83381 16.432 6.65511 16.128 6.543C15.882 6.447 15.511 6.333 14.828 6.303L14.829 6.302ZM9.114 5.042C9.86 5.008 10.099 5 12 5C13.901 5 14.14 5.008 14.886 5.042C15.631 5.076 16.14 5.195 16.586 5.367C17.046 5.547 17.436 5.786 17.826 6.175C18.215 6.564 18.454 6.955 18.633 7.415C18.806 7.86 18.924 8.369 18.958 9.114C18.993 9.86 19.001 10.099 19.001 12C19.001 13.901 18.992 14.14 18.958 14.886C18.924 15.631 18.806 16.14 18.633 16.586C18.4574 17.0531 18.182 17.4763 17.826 17.826C17.436 18.215 17.046 18.454 16.586 18.633C16.141 18.806 15.631 18.924 14.886 18.958C14.14 18.992 13.901 19 12 19C10.1 19 9.86 18.992 9.114 18.958C8.369 18.924 7.86 18.806 7.414 18.633C6.94715 18.457 6.52432 18.1812 6.175 17.825C5.81895 17.4753 5.54354 17.0521 5.368 16.585C5.195 16.14 5.076 15.631 5.042 14.886C5.008 14.14 5 13.901 5 12C5 10.099 5.008 9.86 5.042 9.114C5.076 8.369 5.195 7.86 5.368 7.414C5.546 6.954 5.786 6.564 6.175 6.175C6.564 5.785 6.955 5.547 7.415 5.368C7.86 5.195 8.369 5.076 9.114 5.042ZM12 8.405C11.0465 8.405 10.1321 8.78376 9.45795 9.45795C8.78376 10.1321 8.405 11.0465 8.405 12C8.405 12.9535 8.78376 13.8679 9.45795 14.542C10.1321 15.2162 11.0465 15.595 12 15.595C12.9535 15.595 13.8679 15.2162 14.542 14.542C15.2162 13.8679 15.595 12.9535 15.595 12C15.595 11.0465 15.2162 10.1321 14.542 9.45795C13.8679 8.78376 12.9535 8.405 12 8.405ZM12 14.333C11.3813 14.333 10.7878 14.0872 10.3503 13.6497C9.9128 13.2122 9.667 12.6187 9.667 12C9.667 11.3813 9.9128 10.7878 10.3503 10.3503C10.7878 9.9128 11.3813 9.667 12 9.667C12.6187 9.667 13.2122 9.9128 13.6497 10.3503C14.0872 10.7878 14.333 11.3813 14.333 12C14.333 12.6187 14.0872 13.2122 13.6497 13.6497C13.2122 14.0872 12.6187 14.333 12 14.333ZM16.577 8.263C16.577 8.48578 16.4885 8.69944 16.331 8.85697C16.1734 9.0145 15.9598 9.103 15.737 9.103C15.5142 9.103 15.3006 9.0145 15.143 8.85697C14.9855 8.69944 14.897 8.48578 14.897 8.263C14.897 8.04022 14.9855 7.82656 15.143 7.66903C15.3006 7.5115 15.5142 7.423 15.737 7.423C15.9598 7.423 16.1734 7.5115 16.331 7.66903C16.4885 7.82656 16.577 8.04022 16.577 8.263Z" fill="white"/>
</svg>
